<?xml version="1.0" encoding="UTF-8" ?>
<!DOCTYPE svg PUBLIC "-//W3C//DTD SVG 1.1//EN" "http://www.w3.org/Graphics/SVG/1.1/DTD/svg11.dtd">
<svg width="1504pt" height="730pt" viewBox="0 0 1504 730" version="1.1" xmlns="http://www.w3.org/2000/svg">
<g id="#ffffffff">
</g>
<g id="#020202ff">
<path fill="#020202" opacity="1.00" d=" M 560.02 122.03 C 588.19 102.68 614.74 80.56 645.54 65.37 C 646.09 67.95 647.55 71.09 645.44 73.37 C 632.22 89.13 615.91 101.90 601.08 116.07 C 568.57 145.24 535.83 174.16 503.40 203.42 C 493.31 213.31 482.14 222.18 473.40 233.37 C 461.63 249.18 445.55 260.87 431.74 274.73 C 419.18 287.18 406.87 299.87 394.19 312.19 C 374.99 329.97 356.37 348.44 339.24 368.24 C 331.59 376.78 326.18 387.02 318.63 395.64 C 315.25 399.50 311.89 403.41 309.16 407.78 C 330.91 402.12 352.18 394.70 373.89 388.86 C 405.96 380.15 437.84 369.87 470.96 365.88 C 499.84 362.30 528.94 361.26 557.97 359.61 C 567.26 358.63 576.00 355.27 585.01 353.02 C 622.29 342.95 659.89 330.69 698.98 331.76 C 729.52 331.44 759.58 337.87 790.03 339.00 C 798.52 339.48 803.97 331.49 808.61 325.63 C 817.35 313.39 827.31 302.13 837.08 290.73 C 824.86 296.79 813.78 305.27 800.72 309.53 C 789.30 313.00 775.35 306.17 772.64 294.35 C 768.63 278.63 781.24 266.17 784.79 251.75 C 773.66 252.74 763.29 257.27 752.32 258.92 C 763.78 250.17 777.71 245.90 791.11 241.15 C 796.15 239.59 798.59 234.48 801.61 230.62 C 808.52 220.33 813.63 208.94 820.88 198.85 C 845.07 165.07 876.27 136.26 911.92 114.90 C 930.57 103.41 951.14 94.92 972.66 90.67 C 980.69 89.47 989.52 87.54 996.98 92.00 C 1002.91 95.58 1005.50 102.36 1005.86 109.01 C 1006.02 119.57 1002.99 130.19 996.74 138.74 C 985.31 154.92 969.17 166.92 952.94 177.91 C 931.23 192.87 907.76 204.97 884.75 217.73 C 868.92 226.30 851.78 232.07 834.69 237.51 C 823.76 240.95 812.34 243.10 801.95 248.01 C 792.61 258.12 783.20 270.41 784.06 284.96 C 784.01 292.72 787.96 301.92 796.14 303.87 C 807.04 304.32 816.24 297.67 824.60 291.59 C 843.77 276.92 861.83 260.86 879.69 244.64 C 882.51 241.51 886.99 242.70 890.73 242.96 C 864.25 274.11 836.06 303.84 810.21 335.51 C 851.14 338.77 892.06 333.91 932.99 333.04 C 965.01 332.87 996.99 331.72 1029.01 331.82 C 1070.95 328.77 1113.03 330.71 1155.03 329.69 C 1192.48 328.25 1229.98 327.45 1267.35 324.51 C 1250.30 323.11 1233.19 321.86 1216.09 321.74 C 1216.06 321.05 1216.00 319.69 1215.97 319.01 C 1236.45 318.75 1257.12 320.23 1277.45 316.92 C 1296.34 316.37 1314.98 312.50 1333.88 312.27 C 1337.31 312.43 1339.28 315.56 1341.25 317.93 C 1335.86 321.07 1329.95 323.87 1323.60 323.62 C 1313.74 323.08 1303.93 324.01 1294.39 326.41 C 1279.41 330.17 1263.88 330.50 1248.55 331.41 C 1226.37 332.32 1204.22 334.41 1182.00 334.02 C 1159.64 333.67 1137.32 335.09 1115.00 336.06 C 1097.34 336.96 1079.65 335.47 1062.00 336.29 C 1027.36 337.80 992.68 336.27 958.04 337.46 C 933.71 338.63 909.32 337.14 885.04 339.25 C 859.25 341.75 833.26 339.40 807.47 341.78 C 805.19 342.16 803.10 343.17 801.00 344.06 C 814.44 356.97 833.97 362.43 844.91 378.12 C 850.68 386.60 856.54 395.34 859.84 405.13 C 862.16 411.99 859.10 422.30 850.56 422.72 C 852.40 411.09 845.94 400.67 839.06 391.96 C 826.86 376.29 811.04 363.06 792.43 355.75 C 782.05 365.92 772.88 377.78 760.48 385.62 C 764.35 371.44 777.82 363.22 786.31 351.99 C 773.97 345.62 760.00 342.81 746.13 344.18 C 700.42 348.31 654.83 353.68 609.18 358.41 C 587.96 361.67 565.35 360.61 545.82 370.83 C 516.01 385.54 486.60 403.25 465.27 429.26 C 459.03 437.52 452.94 446.58 451.29 457.02 C 448.59 471.78 446.27 487.72 451.84 502.11 C 454.55 508.08 457.10 514.49 461.81 519.22 C 467.65 525.04 476.53 522.72 483.88 522.76 C 501.53 520.25 518.64 514.95 535.38 508.92 C 535.69 486.85 553.57 467.14 575.44 464.47 C 580.68 462.62 585.59 465.18 589.81 467.95 C 589.21 472.91 588.58 478.27 585.37 482.34 C 576.66 493.14 564.00 499.46 554.02 508.88 C 555.64 514.49 557.07 520.55 560.82 525.18 C 576.95 539.93 599.91 541.85 620.67 543.40 C 649.07 545.86 677.29 541.40 705.46 538.62 C 717.10 537.67 728.38 534.47 739.65 531.58 C 822.16 509.67 904.21 485.81 987.66 467.63 C 1032.55 458.51 1078.52 457.18 1124.04 453.20 C 1149.26 450.70 1174.60 452.95 1199.86 453.28 C 1223.40 455.54 1247.17 456.12 1270.47 460.44 C 1302.83 466.04 1334.51 474.91 1365.98 484.19 C 1380.77 488.91 1395.54 494.14 1409.03 501.95 C 1424.30 511.42 1439.52 522.34 1448.89 538.07 C 1454.71 547.12 1456.32 558.31 1455.88 568.88 C 1455.11 580.88 1446.68 590.49 1438.20 598.20 C 1425.62 608.97 1411.37 617.83 1396.03 624.10 C 1390.49 626.24 1384.41 626.81 1378.54 626.15 C 1395.86 616.65 1414.71 608.20 1427.56 592.60 C 1438.25 579.44 1439.90 559.93 1431.82 545.09 C 1425.06 531.16 1412.58 521.37 1399.96 513.03 C 1381.78 501.08 1361.31 493.40 1340.91 486.24 C 1294.37 471.58 1245.98 462.11 1197.14 460.70 C 1178.76 459.59 1160.42 457.38 1141.99 457.98 C 1109.63 459.11 1077.27 461.01 1045.14 465.20 C 1019.54 466.90 994.30 471.59 969.34 477.37 C 906.25 490.94 844.45 509.67 782.13 526.23 C 751.40 534.29 720.69 543.04 689.13 547.16 C 670.77 548.74 652.37 549.83 633.99 551.12 C 610.29 552.77 586.91 547.16 563.97 542.01 C 553.85 540.69 549.44 530.17 544.06 522.95 C 541.62 519.81 539.34 514.11 534.01 516.16 C 518.93 518.24 504.94 524.49 490.34 528.44 C 483.69 530.11 476.73 529.43 469.96 529.41 C 459.38 528.79 449.00 531.36 438.54 532.38 C 400.93 535.55 363.04 539.54 325.32 535.72 C 308.10 534.23 291.72 528.41 275.25 523.59 C 260.21 519.06 244.71 513.88 232.85 503.14 C 223.35 494.14 219.13 480.84 219.05 468.01 C 219.31 465.32 219.78 462.48 221.22 460.16 C 227.43 451.21 235.68 443.87 244.45 437.50 C 258.53 428.09 276.16 425.30 289.36 414.39 C 305.31 402.03 313.81 383.02 327.81 368.82 C 343.92 352.58 359.31 335.66 375.73 319.74 C 399.53 294.55 423.98 269.97 449.24 246.24 C 474.96 220.26 502.34 195.99 529.33 171.34 C 557.19 145.43 585.61 120.12 613.45 94.20 C 602.38 100.23 592.15 107.66 581.81 114.81 C 517.44 161.01 453.55 207.98 386.92 250.90 C 370.25 261.89 352.37 270.87 335.68 281.81 C 353.07 279.12 370.07 274.34 387.42 271.39 C 392.94 270.29 398.61 270.70 404.17 271.39 C 389.78 274.35 376.68 282.18 361.83 283.28 C 348.02 284.38 334.14 286.19 321.12 291.16 C 310.98 295.06 300.17 298.52 292.15 306.18 C 287.28 311.02 291.70 319.66 286.33 324.31 C 283.75 327.65 279.53 328.95 275.68 330.13 C 271.42 319.90 272.29 308.68 274.09 298.04 C 277.91 273.65 274.62 248.79 269.10 224.94 C 261.71 190.27 229.02 162.84 193.60 161.58 C 179.93 161.06 165.78 159.68 152.69 164.61 C 123.65 173.58 103.41 200.66 96.40 229.40 C 92.03 247.41 95.07 267.21 105.24 282.76 C 108.53 288.00 114.73 291.47 120.96 291.11 C 140.79 292.94 158.98 281.93 173.27 269.27 C 180.69 262.29 188.99 253.85 189.02 242.97 C 190.01 238.97 188.72 234.14 184.86 232.22 C 177.52 227.95 168.80 227.32 161.13 223.81 C 162.89 221.42 164.43 218.28 167.60 217.58 C 177.35 215.74 187.88 217.27 196.24 222.77 C 200.00 225.52 201.06 230.59 200.80 234.99 C 201.04 244.70 194.90 252.96 189.43 260.38 C 175.17 277.13 156.40 289.61 136.38 298.45 C 124.28 303.43 108.52 304.26 98.70 294.30 C 86.24 281.88 84.60 262.93 85.33 246.32 C 88.46 211.35 110.84 178.99 141.99 162.98 C 156.43 154.59 173.56 152.24 190.01 152.13 C 212.58 152.68 235.79 158.95 253.43 173.56 C 266.56 184.34 275.32 199.64 280.40 215.69 C 287.71 237.68 287.47 261.16 288.07 284.05 C 288.10 288.29 290.11 292.13 291.96 295.84 C 304.37 292.15 314.87 284.31 326.06 278.12 C 411.33 237.89 483.81 176.51 560.02 122.03 M 967.66 98.61 C 946.30 102.02 927.64 114.18 910.04 126.06 C 882.36 144.87 859.49 169.56 837.56 194.58 C 825.82 208.88 813.27 222.89 804.82 239.48 C 812.83 237.98 820.29 234.69 827.87 231.82 C 835.89 228.62 844.37 226.73 852.31 223.29 C 892.33 207.26 932.16 189.11 966.05 162.04 C 978.91 150.69 991.77 136.75 993.94 118.97 C 994.02 112.99 993.57 105.57 988.35 101.64 C 983.24 95.44 974.43 98.53 967.66 98.61 M 665.45 340.52 C 645.72 343.36 626.04 346.82 606.74 351.86 C 627.38 351.14 647.84 348.03 668.41 346.41 C 689.73 344.08 711.15 342.63 732.36 339.44 C 710.12 337.52 687.55 336.86 665.45 340.52 M 484.45 371.72 C 453.58 375.16 423.15 381.67 393.00 388.99 C 361.80 396.89 330.24 404.45 300.82 417.82 C 280.08 427.58 258.91 437.39 241.31 452.34 C 237.18 456.52 231.44 461.28 233.03 467.96 C 232.97 483.49 243.86 496.77 256.70 504.31 C 279.48 518.26 306.33 522.79 332.14 527.92 C 356.66 531.06 381.44 529.81 406.03 528.24 C 424.56 527.11 443.46 528.06 461.67 523.87 C 456.45 517.94 449.93 512.99 446.19 505.90 C 440.90 496.49 439.85 485.41 439.18 474.85 C 439.08 458.08 447.41 442.48 457.86 429.84 C 479.29 403.95 507.25 384.49 536.28 368.02 C 518.93 368.21 501.77 371.11 484.45 371.72 M 554.29 498.27 C 563.12 492.63 572.90 486.41 575.90 475.64 C 563.84 474.72 552.53 486.21 554.29 498.27 Z" />
<path fill="#020202" opacity="1.00" d=" M 1250.95 164.96 C 1254.86 161.99 1260.02 161.77 1264.62 160.46 C 1265.06 162.47 1265.69 164.49 1265.57 166.57 C 1258.62 173.32 1250.57 178.84 1243.91 185.88 C 1236.89 193.81 1232.65 205.58 1221.65 208.89 C 1220.54 199.52 1226.52 191.84 1232.34 185.32 C 1238.30 178.32 1244.45 171.47 1250.95 164.96 Z" />
<path fill="#020202" opacity="1.00" d=" M 1124.96 163.94 C 1131.39 161.52 1138.22 163.98 1144.01 166.97 C 1156.53 173.43 1166.27 185.90 1167.72 200.16 C 1170.13 209.84 1166.61 219.32 1164.87 228.76 C 1175.55 238.62 1188.34 248.12 1192.13 262.88 C 1193.01 270.33 1194.23 278.49 1191.74 285.73 C 1183.46 298.85 1166.46 301.12 1152.32 302.39 C 1152.07 299.62 1150.28 295.18 1154.01 293.99 C 1159.59 289.56 1166.28 296.54 1172.02 293.06 C 1179.49 287.72 1182.64 277.67 1180.30 268.82 C 1177.67 259.12 1174.19 248.18 1164.84 242.89 C 1160.78 242.70 1159.32 247.53 1156.82 249.81 C 1147.35 262.81 1135.99 274.33 1123.96 284.96 C 1114.10 292.81 1102.21 299.99 1089.09 298.94 C 1084.39 297.61 1082.98 292.14 1080.34 288.59 C 1068.21 295.66 1057.17 304.73 1044.11 310.11 C 1037.72 312.10 1030.41 312.21 1024.14 309.82 C 1017.75 305.56 1021.42 297.44 1022.56 291.48 C 1009.83 298.04 997.84 306.02 984.61 311.59 C 981.14 312.64 976.67 314.15 973.83 311.18 C 970.51 308.00 970.36 303.14 970.36 298.86 C 959.94 305.58 949.56 313.33 937.29 316.23 C 933.17 317.60 929.28 316.17 925.66 314.44 C 926.43 309.56 927.28 304.69 928.02 299.81 C 914.76 305.27 901.71 312.22 887.18 313.44 C 881.39 313.48 873.80 311.37 871.65 305.33 C 869.70 297.39 874.89 290.35 879.51 284.54 C 890.62 271.00 905.58 261.45 920.38 252.42 C 929.22 247.50 938.54 243.00 948.65 241.45 C 952.87 240.84 956.45 244.21 958.46 247.60 C 960.63 251.45 958.71 255.89 958.10 259.90 C 961.19 260.93 964.37 261.96 967.46 263.09 C 959.63 274.95 950.30 285.80 942.91 297.95 C 940.81 301.06 940.28 304.83 939.49 308.41 C 948.62 307.39 956.19 301.81 962.92 295.94 C 973.82 286.50 983.73 275.98 992.72 264.71 C 996.03 260.15 1001.45 257.95 1006.68 256.39 C 1007.49 257.96 1008.33 259.54 1009.18 261.12 C 1001.88 272.39 992.01 282.06 986.40 294.37 C 985.77 297.46 982.47 303.41 987.16 303.82 C 991.08 304.18 994.45 301.46 997.76 299.76 C 1013.23 289.57 1025.52 275.51 1038.79 262.77 C 1042.35 258.74 1047.64 257.61 1052.65 256.37 C 1050.69 269.70 1038.85 278.88 1035.99 291.90 C 1035.34 295.88 1035.32 299.93 1035.04 303.95 C 1041.03 304.22 1047.33 303.68 1052.63 300.61 C 1073.58 288.61 1088.31 268.81 1107.37 254.36 C 1110.65 251.79 1114.83 251.22 1118.80 250.33 C 1118.47 252.56 1119.06 255.38 1117.04 256.95 C 1110.55 263.14 1102.96 268.48 1098.35 276.36 C 1095.75 280.99 1096.31 286.57 1096.56 291.69 C 1105.77 290.64 1113.05 284.59 1120.00 279.01 C 1128.36 272.10 1137.18 265.08 1142.20 255.20 C 1145.65 247.96 1150.42 241.33 1152.72 233.58 C 1141.72 222.42 1127.80 214.24 1118.55 201.42 C 1113.44 194.73 1111.43 185.62 1114.60 177.64 C 1116.65 172.36 1119.25 166.17 1124.96 163.94 M 1130.88 171.14 C 1123.90 180.51 1125.25 193.87 1132.12 202.91 C 1138.48 211.27 1146.99 218.23 1156.67 222.42 C 1156.35 214.92 1158.22 206.59 1154.29 199.76 C 1148.17 189.02 1141.39 178.10 1130.88 171.14 M 927.69 255.70 C 913.08 264.54 897.47 273.17 887.36 287.36 C 884.84 292.08 886.34 297.79 885.74 302.89 C 887.95 304.06 890.09 305.47 892.53 306.20 C 899.46 307.09 905.71 303.36 911.88 300.89 C 922.85 295.67 934.16 290.47 943.41 282.42 C 946.87 279.68 948.77 275.59 950.38 271.59 C 938.82 277.26 928.78 286.06 916.14 289.46 C 916.06 287.94 916.00 286.41 915.95 284.89 C 923.56 280.20 931.52 276.01 938.74 270.72 C 943.96 266.47 949.97 259.25 945.71 252.27 C 939.81 249.42 933.10 253.19 927.69 255.70 Z" />
<path fill="#020202" opacity="1.00" d=" M 695.43 187.50 C 701.70 184.33 704.54 191.51 706.14 195.91 C 710.58 206.55 703.71 217.16 696.38 224.37 C 687.39 233.39 675.77 242.75 662.14 240.84 C 658.21 240.23 653.65 236.32 657.15 231.96 C 665.01 220.07 668.14 204.98 679.77 195.77 C 684.54 192.37 689.62 188.84 695.43 187.50 M 673.07 221.12 C 670.52 224.93 667.98 229.16 668.76 234.01 C 670.30 234.66 672.07 235.47 673.74 234.77 C 682.14 230.16 688.86 222.89 693.56 214.62 C 695.09 209.94 694.57 204.84 693.15 200.21 C 685.68 206.38 678.78 213.28 673.07 221.12 Z" />
<path fill="#020202" opacity="1.00" d=" M 536.02 283.98 C 560.58 265.74 579.04 239.90 605.96 224.72 C 607.83 225.96 609.72 227.19 611.64 228.39 C 609.55 233.63 606.01 238.09 602.23 242.21 C 588.17 257.16 572.81 270.81 558.14 285.13 C 546.03 296.37 533.72 307.58 523.81 320.87 C 524.67 322.47 525.53 324.08 526.40 325.69 C 541.53 318.61 555.16 307.66 564.61 293.80 C 567.77 294.55 570.93 295.45 574.05 296.38 C 571.07 301.46 566.95 305.80 562.08 309.11 C 552.33 316.13 543.05 324.07 531.98 328.97 C 525.18 332.07 517.24 332.73 510.12 330.40 C 511.38 318.44 520.14 309.31 528.17 301.18 C 535.40 293.62 543.83 287.37 551.15 279.92 C 527.65 293.14 506.01 311.32 479.12 317.20 C 474.27 318.44 469.28 318.67 464.34 318.04 C 468.93 308.42 477.22 301.55 485.92 295.77 C 485.80 295.04 485.55 293.59 485.43 292.86 C 477.97 293.57 471.27 297.15 464.94 300.90 C 450.03 310.21 435.73 320.44 421.10 330.15 C 417.16 333.38 411.58 333.20 407.22 330.98 C 427.32 312.27 451.07 298.08 473.51 282.44 C 472.91 285.07 472.32 287.71 471.83 290.37 C 480.32 287.65 488.47 283.02 497.62 283.21 C 499.84 284.81 502.36 287.18 500.50 290.43 C 495.26 297.14 488.26 302.28 483.36 309.26 C 502.07 303.71 520.06 295.26 536.02 283.98 Z" />
<path fill="#020202" opacity="1.00" d=" M 657.40 253.40 C 660.30 250.72 663.47 253.60 665.84 255.45 C 658.99 264.07 652.13 272.70 645.00 281.08 C 643.07 283.47 639.69 283.42 636.98 284.16 C 637.41 270.93 648.02 261.36 657.40 253.40 Z" />
<path fill="#020202" opacity="1.00" d=" M 673.82 262.71 C 676.46 261.29 680.74 262.50 680.65 265.97 C 680.24 272.39 675.80 277.78 670.73 281.37 C 669.00 280.12 667.28 278.87 665.55 277.63 C 666.51 272.04 667.79 265.05 673.82 262.71 Z" />
<path fill="#020202" opacity="1.00" d=" M 425.82 290.84 C 431.72 287.20 438.63 285.86 445.39 284.87 C 433.42 296.87 416.85 302.48 403.86 313.20 C 402.80 312.17 401.74 311.13 400.69 310.10 C 409.03 303.63 416.87 296.49 425.82 290.84 Z" />
<path fill="#020202" opacity="1.00" d=" M 732.14 319.11 C 733.43 319.78 733.42 320.46 732.11 321.14 C 730.80 320.47 730.81 319.79 732.14 319.11 Z" />
</g>
</svg>
